<svg width="30" height="29" viewBox="0 0 30 29" fill="none" xmlns="http://www.w3.org/2000/svg">
<g filter="url(#filter0_d_2_21)">
<path d="M9.06491 12.2075C9.46074 11.3835 9.41719 10.3096 8.94228 9.18388C8.10317 7.19392 6.65807 6.05721 5.42814 6.4193C4.20032 6.78105 3.69924 8.45826 4.18117 10.5928C4.44168 11.7465 5.04021 12.6457 5.86663 13.1253C6.26301 13.3553 6.68691 13.4729 7.10212 13.4729C7.3065 13.4729 7.50887 13.4444 7.70489 13.3866C8.3012 13.211 8.78424 12.7921 9.06491 12.2075Z" fill="white"/>
<path d="M9.8063 7.18158C10.2978 7.62854 10.8914 7.86833 11.4964 7.86833C11.5606 7.86833 11.6245 7.86565 11.6888 7.86031C12.3625 7.80362 12.9737 7.4637 13.41 6.90314C14.0198 6.11928 14.2294 4.97901 13.9998 3.69183C13.5919 1.40516 12.3397 -0.110222 10.9546 0.00627735C9.57553 0.122443 8.64554 1.78518 8.64064 4.14368C8.63796 5.4166 9.05206 6.49539 9.8063 7.18158Z" fill="white"/>
<path d="M24.5721 6.41933C23.3424 6.05724 21.8969 7.19395 21.0577 9.18391C20.5829 10.3096 20.5394 11.3835 20.9352 12.2076C21.2159 12.7922 21.6989 13.2111 22.2952 13.3866C22.4912 13.4444 22.6934 13.4729 22.898 13.4729C23.313 13.4729 23.7371 13.3553 24.1335 13.1253C24.9599 12.6457 25.5585 11.7463 25.8189 10.5928C26.3009 8.45829 25.7998 6.78108 24.5721 6.41933Z" fill="white"/>
<path d="M18.3107 7.86026C18.375 7.86561 18.4389 7.86828 18.5028 7.86828C19.108 7.86828 19.7019 7.62849 20.1932 7.18154C20.9474 6.49535 21.3615 5.41656 21.3589 4.14364C21.3537 1.78513 20.424 0.122398 19.0449 0.00623266C17.661 -0.109821 16.4076 1.40512 15.9997 3.69178C15.7701 4.97896 15.9795 6.11923 16.5895 6.9031C17.0258 7.46365 17.637 7.80357 18.3107 7.86026Z" fill="white"/>
<path d="M20.2219 14.0282C18.5873 12.8365 17.9203 11.0129 17.9137 10.9946L17.9108 10.987C16.9929 8.75698 15.3235 8.66688 15.0027 8.67334C14.6774 8.66799 13.0074 8.75698 12.0884 10.9894C12.0806 11.0089 11.2964 12.9622 9.78071 14.0263C8.54967 14.8906 7.46943 16.5271 8.12855 18.5287C8.14793 18.5947 8.36033 19.284 8.98114 19.8704C10.0507 20.8808 11.4595 20.773 12.453 20.5048L12.4596 20.5029C12.4693 20.4998 13.434 20.1998 14.2872 19.9856C14.7537 19.8685 15.2466 19.8688 15.7129 19.9856C16.566 20.1996 17.5309 20.4998 17.5406 20.5029L17.5471 20.5048C18.0292 20.6349 18.4596 20.6899 18.8428 20.6899C19.8912 20.6899 20.5869 20.2786 21.0191 19.8704C21.6399 19.284 21.8523 18.5943 21.8717 18.5287C22.6842 16.061 20.8146 14.4601 20.2219 14.0282Z" fill="white"/>
</g>
<defs>
<filter id="filter0_d_2_21" x="0" y="0" width="30.0001" height="28.6899" filterUnits="userSpaceOnUse" color-interpolation-filters="sRGB">
<feFlood flood-opacity="0" result="BackgroundImageFix"/>
<feColorMatrix in="SourceAlpha" type="matrix" values="0 0 0 0 0 0 0 0 0 0 0 0 0 0 0 0 0 0 127 0" result="hardAlpha"/>
<feOffset dy="4"/>
<feGaussianBlur stdDeviation="2"/>
<feComposite in2="hardAlpha" operator="out"/>
<feColorMatrix type="matrix" values="0 0 0 0 0 0 0 0 0 0 0 0 0 0 0 0 0 0 0.25 0"/>
<feBlend mode="normal" in2="BackgroundImageFix" result="effect1_dropShadow_2_21"/>
<feBlend mode="normal" in="SourceGraphic" in2="effect1_dropShadow_2_21" result="shape"/>
</filter>
</defs>
</svg>
